        Empire of the Wolves 2005 DVDRip(Dual Audio) Xvid LKRG


RIPPER                           : fasamoo
Format                           : AVI
Format/Info                      : Audio Video Interleave
File size                        : 1.00 GiB
Duration                         : 2h 8mn
Overall bit rate                 : 1 117 Kbps
Writing application              : VirtualDubMod 1.5.4.1 (build 2178/release)
Writing library                  : VirtualDubMod build 2178/release
Language                         : French, English (Dual Audio)
Subtitles                        : English(*.srt))
Genre                            : Action | Drama | Thriller

Video
ID                               : 0
Format                           : MPEG-4 Visual
Format profile                   : Advanced Simple@L5
Format settings, BVOP            : Yes
Format settings, QPel            : No
Format settings, GMC             : No warppoints
Format settings, Matrix          : Custom
Codec ID                         : XVID
Codec ID/Hint                    : XviD
Duration                         : 2h 8mn
Bit rate                         : 864 Kbps
Width                            : 688 pixels
Height                           : 304 pixels
Display aspect ratio             : 2.25:1
Frame rate                       : 23.976 fps
Color space                      : YUV
Chroma subsampling               : 4:2:0
Bit depth                        : 8 bits
Scan type                        : Progressive
Bits/(Pixel*Frame)               : 0.172
Stream size                      : 793 MiB (77%)
Writing library                  : XviD 1.2.1 (UTC 2008-12-04)

Audio #1
ID                               : 1
Format                           : MPEG Audio
Format version                   : Version 1
Format profile                   : Layer 3
Mode                             : Joint stereo
Mode extension                   : MS Stereo
Codec ID                         : 55
Codec ID/Hint                    : MP3
Duration                         : 2h 8mn
Bit rate mode                    : Variable
Bit rate                         : 117 Kbps
Nominal bit rate                 : 128 Kbps
Channel(s)                       : 2 channels
Sampling rate                    : 48.0 KHz
Stream size                      : 107 MiB (10%)
Alignment                        : Aligned on interleaves
Interleave, duration             : 24 ms (0.58 video frame)
Interleave, preload duration     : 158 ms
Writing library                  : LAME3.98r
Encoding settings                : -m j -V 4 -q 2 -lowpass 17 --abr 128
Language                         : French

Audio #2
ID                               : 2
Format                           : MPEG Audio
Format version                   : Version 1
Format profile                   : Layer 3
Mode                             : Joint stereo
Mode extension                   : MS Stereo
Codec ID                         : 55
Codec ID/Hint                    : MP3
Duration                         : 2h 8mn
Bit rate mode                    : Variable
Bit rate                         : 116 Kbps
Nominal bit rate                 : 128 Kbps
Channel(s)                       : 2 channels
Sampling rate                    : 48.0 KHz
Stream size                      : 106 MiB (10%)
Alignment                        : Aligned on interleaves
Interleave, duration             : 24 ms (0.58 video frame)
Interleave, preload duration     : 524 ms
Writing library                  : LAME3.98r
Encoding settings                : -m j -V 4 -q 2 -lowpass 17 --abr 128
Language                         : English

                                 PLOT

When the young detective Paul Nerteaux finds the third slashed female corpse of illegal Turkish immigrants, he decides to ask for support to the experienced dark retired detective Jean-Louis Schiffer to chase the serial killer. Together, they infiltrate in the Turkish mafia trying to find the answer to the crimes. Meanwhile, the worker Anna Heymes is being submitted to a brain treatment and has severe headaches and glimpses of memories and visions. When these two parallel events collide, disclose that the Turkish organization "The Wolves" is behind them.
  







                                 IMBD
                     
                    http://www.imdb.com/title/tt0402158/
 
http://leetleech.org/images/21682654930607700785.png 
http://leetleech.org/images/36712991138713511573.png 
http://leetleech.org/images/88708488448340595891.png 
http://leetleech.org/images/42145158110581982602.png 
http://leetleech.org/images/59400337727090717756.png 
http://leetleech.org/images/81545924316985330594.png 
http://leetleech.org/images/28815052466963337350.png 
http://leetleech.org/images/10163764398577696537.png


